<svg xmlns="http://www.w3.org/2000/svg" height="48" viewBox="0 -960 960 960" width="48"><path d="M226.001-257.077q60.923-42.307 122.276-65.038 61.352-22.731 131.768-22.731t131.532 22.731q61.115 22.731 124.038 65.038 42.615-52.538 62.307-106.725Q817.615-417.989 817.615-480q0-142.538-97.538-240.077Q622.538-817.615 480-817.615t-240.077 97.538Q142.385-622.538 142.385-480q0 62.011 20 116.198 20 54.187 63.616 106.725Zm253.822-188.231q-58.977 0-99.284-40.484-40.308-40.484-40.308-99.461t40.485-99.285q40.484-40.307 99.461-40.307t99.284 40.484q40.308 40.484 40.308 99.461t-40.485 99.284q-40.484 40.308-99.461 40.308Zm.645 361.307q-82.006 0-153.777-31.033-71.771-31.032-125.961-85.576-54.19-54.545-85.459-125.964-31.27-71.42-31.27-154 0-80.58 31.48-152.339t85.541-126.39q54.062-54.631 125.517-85.663 71.455-31.033 154.035-31.033 80.58 0 152.339 31.48t126.153 85.577q54.394 54.097 85.663 125.894 31.27 71.797 31.27 152.58 0 82.006-31.033 153.777-31.032 71.771-85.663 125.751-54.631 53.979-126.341 85.459-71.711 31.48-152.494 31.48ZM480-142.385q53.769 0 107-16.731t102.154-56.346q-48.509-34.198-101.793-52.599Q534.077-286.462 480-286.462q-54.077 0-107.346 18.192-53.27 18.192-100.423 53.111Q319.769-176.24 373-159.313q53.231 16.928 107 16.928Zm.054-361.307q34.869 0 58.1-23.284 23.231-23.285 23.231-58.154 0-34.87-23.285-58.101-23.284-23.231-58.154-23.231-34.869 0-58.1 23.285-23.231 23.284-23.231 58.154 0 34.869 23.285 58.1 23.284 23.231 58.154 23.231ZM480-585.077Zm0 370.153Z"/></svg>