<svg xmlns="http://www.w3.org/2000/svg" height="48" viewBox="0 -960 960 960" width="48"><path d="M234.694-84.001q-28.254 0-49.473-21.22-21.22-21.219-21.22-49.473v-487.612q0-28.254 21.22-49.473 21.219-21.22 49.473-21.22h96.614v-17.308q0-61.923 43.124-103.807 43.123-41.885 105.488-41.885t106.069 41.885q43.703 41.884 43.703 103.807v17.308h95.614q28.254 0 49.473 21.22 21.22 21.219 21.22 49.473v487.612q0 28.254-21.22 49.473-21.219 21.22-49.473 21.22H234.694Zm0-58.384h490.612q4.616 0 8.463-3.846 3.846-3.847 3.846-8.463v-487.612q0-4.616-3.846-8.463-3.847-3.846-8.463-3.846h-95.614v90.308q0 12.663-8.842 21.178-8.842 8.514-21.032 8.514-11.766 0-20.138-8.514-8.372-8.515-8.372-21.178v-90.308H389.692v90.308q0 12.663-8.842 21.178-8.842 8.514-21.032 8.514-11.766 0-20.138-8.514-8.372-8.515-8.372-21.178v-90.308h-96.614q-4.616 0-8.463 3.846-3.846 3.847-3.846 8.463v487.612q0 4.616 3.846 8.463 3.847 3.846 8.463 3.846Zm154.998-570.614h181.616v-17.308q0-37.077-26.695-62.192-26.695-25.116-64.693-25.116-37.997 0-64.113 25.116-26.115 25.115-26.115 62.192v17.308ZM222.385-142.385v-512.23 512.23Z"/></svg>